<svg version="1.1" viewBox="0.0 0.0 892.5853018372703 428.76377952755905" fill="none" stroke="none" stroke-linecap="square" stroke-miterlimit="10" xmlns:xlink="http://www.w3.org/1999/xlink" xmlns="http://www.w3.org/2000/svg"><clipPath id="p.0"><path d="m0 0l892.5853 0l0 428.7638l-892.5853 0l0 -428.7638z" clip-rule="nonzero"/></clipPath><g clip-path="url(#p.0)"><path fill="#000000" fill-opacity="0.0" d="m0 0l892.5853 0l0 428.7638l-892.5853 0z" fill-rule="evenodd"/><path fill="#000000" fill-opacity="0.0" d="m19.417322 11.6850395l121.35433 0l0 44.94488l-121.35433 0z" fill-rule="evenodd"/><path fill="#000000" d="m48.602303 43.72504l0 -17.1875l6.46875 0q1.71875 0 2.625 0.171875q1.265625 0.203125 2.109375 0.796875q0.859375 0.59375 1.375 1.671875q0.53125 1.0625 0.53125 2.328125q0 2.203125 -1.40625 3.71875q-1.390625 1.515625 -5.03125 1.515625l-4.40625 0l0 6.984375l-2.265625 0zm2.265625 -9.015625l4.4375 0q2.203125 0 3.125 -0.8125q0.9375 -0.828125 0.9375 -2.3125q0 -1.078125 -0.546875 -1.84375q-0.546875 -0.765625 -1.4375 -1.015625q-0.578125 -0.15625 -2.125 -0.15625l-4.390625 0l0 6.140625zm12.6796875 2.796875q0 -3.46875 1.921875 -5.125q1.609375 -1.390625 3.921875 -1.390625q2.5625 0 4.1875 1.6875q1.625 1.6875 1.625 4.640625q0 2.40625 -0.71875 3.78125q-0.71875 1.375 -2.09375 2.140625q-1.375 0.765625 -3.0 0.765625q-2.625 0 -4.234375 -1.671875q-1.609375 -1.6875 -1.609375 -4.828125zm2.171875 0q0 2.390625 1.03125 3.578125q1.046875 1.1875 2.640625 1.1875q1.5625 0 2.609375 -1.1875q1.046875 -1.203125 1.046875 -3.65625q0 -2.3125 -1.0625 -3.5q-1.046875 -1.1875 -2.59375 -1.1875q-1.59375 0 -2.640625 1.1875q-1.03125 1.1875 -1.03125 3.578125zm11.972656 -8.53125l0 -2.4375l2.109375 0l0 2.4375l-2.109375 0zm0 14.75l0 -12.453125l2.109375 0l0 12.453125l-2.109375 0zm5.3164062 0l0 -12.453125l1.90625 0l0 1.78125q1.375 -2.0625 3.953125 -2.0625q1.125 0 2.0625 0.40625q0.953125 0.40625 1.421875 1.0625q0.46875 0.65625 0.65625 1.5625q0.125 0.578125 0.125 2.046875l0 7.65625l-2.109375 0l0 -7.578125q0 -1.28125 -0.25 -1.921875q-0.25 -0.640625 -0.875 -1.015625q-0.625 -0.390625 -1.46875 -0.390625q-1.34375 0 -2.328125 0.859375q-0.984375 0.859375 -0.984375 3.25l0 6.796875l-2.109375 0zm17.957031 -1.890625l0.3125 1.859375q-0.890625 0.203125 -1.59375 0.203125q-1.15625 0 -1.796875 -0.359375q-0.625 -0.375 -0.890625 -0.96875q-0.25 -0.59375 -0.25 -2.484375l0 -7.171875l-1.546875 0l0 -1.640625l1.546875 0l0 -3.078125l2.09375 -1.265625l0 4.34375l2.125 0l0 1.640625l-2.125 0l0 7.28125q0 0.90625 0.109375 1.171875q0.125 0.25 0.375 0.40625q0.25 0.140625 0.71875 0.140625q0.34375 0 0.921875 -0.078125zm1.2148438 -1.828125l2.09375 -0.328125q0.171875 1.25 0.96875 1.921875q0.8125 0.671875 2.25 0.671875q1.453125 0 2.15625 -0.59375q0.703125 -0.59375 0.703125 -1.390625q0 -0.71875 -0.625 -1.125q-0.421875 -0.28125 -2.15625 -0.71875q-2.3125 -0.578125 -3.21875 -1.0q-0.890625 -0.4375 -1.359375 -1.1875q-0.453125 -0.765625 -0.453125 -1.671875q0 -0.828125 0.375 -1.53125q0.390625 -0.71875 1.046875 -1.1875q0.484375 -0.359375 1.328125 -0.609375q0.859375 -0.265625 1.828125 -0.265625q1.46875 0 2.578125 0.421875q1.109375 0.421875 1.625 1.15625q0.53125 0.71875 0.734375 1.921875l-2.0625 0.28125q-0.140625 -0.96875 -0.8125 -1.5q-0.671875 -0.546875 -1.90625 -0.546875q-1.453125 0 -2.078125 0.484375q-0.625 0.484375 -0.625 1.125q0 0.40625 0.265625 0.734375q0.25 0.34375 0.8125 0.5625q0.3125 0.125 1.859375 0.546875q2.234375 0.59375 3.109375 0.984375q0.890625 0.375 1.390625 1.109375q0.515625 0.71875 0.515625 1.796875q0 1.046875 -0.625 1.984375q-0.609375 0.9375 -1.765625 1.453125q-1.15625 0.5 -2.625 0.5q-2.421875 0 -3.703125 -1.0q-1.265625 -1.015625 -1.625 -3.0z" fill-rule="nonzero"/><path fill="#000000" fill-opacity="0.0" d="m309.3937 11.6850395l121.35431 0l0 44.94488l-121.35431 0z" fill-rule="evenodd"/><path fill="#000000" d="m343.149 43.72504l0 -17.1875l2.265625 0l0 15.15625l8.46875 0l0 2.03125l-10.734375 0zm13.175781 -14.75l0 -2.4375l2.109375 0l0 2.4375l-2.109375 0zm0 14.75l0 -12.453125l2.109375 0l0 12.453125l-2.109375 0zm5.3164062 0l0 -12.453125l1.90625 0l0 1.78125q1.375 -2.0625 3.953125 -2.0625q1.125 0 2.0625 0.40625q0.953125 0.40625 1.421875 1.0625q0.46875 0.65625 0.65625 1.5625q0.125 0.578125 0.125 2.046875l0 7.65625l-2.109375 0l0 -7.578125q0 -1.28125 -0.25 -1.921875q-0.25 -0.640625 -0.875 -1.015625q-0.625 -0.390625 -1.46875 -0.390625q-1.34375 0 -2.328125 0.859375q-0.984375 0.859375 -0.984375 3.25l0 6.796875l-2.109375 0zm21.878906 -4.015625l2.171875 0.28125q-0.515625 1.90625 -1.90625 2.96875q-1.390625 1.046875 -3.5625 1.046875q-2.734375 0 -4.34375 -1.671875q-1.59375 -1.6875 -1.59375 -4.734375q0 -3.140625 1.609375 -4.875q1.625 -1.734375 4.203125 -1.734375q2.5 0 4.078125 1.703125q1.59375 1.703125 1.59375 4.78125q0 0.1875 -0.015625 0.5625l-9.28125 0q0.109375 2.046875 1.15625 3.140625q1.046875 1.09375 2.609375 1.09375q1.15625 0 1.96875 -0.609375q0.828125 -0.609375 1.3125 -1.953125zm-6.9375 -3.40625l6.953125 0q-0.140625 -1.5625 -0.796875 -2.359375q-1.0 -1.21875 -2.609375 -1.21875q-1.453125 0 -2.453125 0.984375q-0.984375 0.96875 -1.09375 2.59375zm10.910156 3.703125l2.09375 -0.328125q0.171875 1.25 0.96875 1.921875q0.8125 0.671875 2.25 0.671875q1.453125 0 2.15625 -0.59375q0.703125 -0.59375 0.703125 -1.390625q0 -0.71875 -0.625 -1.125q-0.421875 -0.28125 -2.15625 -0.71875q-2.3125 -0.578125 -3.21875 -1.0q-0.890625 -0.4375 -1.359375 -1.1875q-0.453125 -0.765625 -0.453125 -1.671875q0 -0.828125 0.375 -1.53125q0.390625 -0.71875 1.046875 -1.1875q0.484375 -0.359375 1.328125 -0.609375q0.859375 -0.265625 1.828125 -0.265625q1.46875 0 2.578125 0.421875q1.109375 0.421875 1.625 1.15625q0.53125 0.71875 0.734375 1.921875l-2.0625 0.28125q-0.140625 -0.96875 -0.8125 -1.5q-0.671875 -0.546875 -1.90625 -0.546875q-1.453125 0 -2.078125 0.484375q-0.625 0.484375 -0.625 1.125q0 0.40625 0.265625 0.734375q0.25 0.34375 0.8125 0.5625q0.3125 0.125 1.859375 0.546875q2.234375 0.59375 3.109375 0.984375q0.890625 0.375 1.390625 1.109375q0.515625 0.71875 0.515625 1.796875q0 1.046875 -0.625 1.984375q-0.609375 0.9375 -1.765625 1.453125q-1.15625 0.5 -2.625 0.5q-2.421875 0 -3.703125 -1.0q-1.265625 -1.015625 -1.625 -3.0z" fill-rule="nonzero"/><path fill="#000000" fill-opacity="0.0" d="m618.87665 11.6850395l133.57477 0l0 44.94488l-133.57477 0z" fill-rule="evenodd"/><path fill="#000000" d="m638.1582 43.72504l0 -17.1875l6.46875 0q1.71875 0 2.625 0.171875q1.265625 0.203125 2.109375 0.796875q0.859375 0.59375 1.375 1.671875q0.53125 1.0625 0.53125 2.328125q0 2.203125 -1.40625 3.71875q-1.390625 1.515625 -5.03125 1.515625l-4.40625 0l0 6.984375l-2.265625 0zm2.265625 -9.015625l4.4375 0q2.203125 0 3.125 -0.8125q0.9375 -0.828125 0.9375 -2.3125q0 -1.078125 -0.546875 -1.84375q-0.546875 -0.765625 -1.4375 -1.015625q-0.578125 -0.15625 -2.125 -0.15625l-4.390625 0l0 6.140625zm12.6796875 2.796875q0 -3.46875 1.921875 -5.125q1.609375 -1.390625 3.921875 -1.390625q2.5625 0 4.1875 1.6875q1.625 1.6875 1.625 4.640625q0 2.40625 -0.71875 3.78125q-0.71875 1.375 -2.09375 2.140625q-1.375 0.765625 -3.0 0.765625q-2.625 0 -4.234375 -1.671875q-1.609375 -1.6875 -1.609375 -4.828125zm2.171875 0q0 2.390625 1.03125 3.578125q1.046875 1.1875 2.640625 1.1875q1.5625 0 2.609375 -1.1875q1.046875 -1.203125 1.046875 -3.65625q0 -2.3125 -1.0625 -3.5q-1.046875 -1.1875 -2.59375 -1.1875q-1.59375 0 -2.640625 1.1875q-1.03125 1.1875 -1.03125 3.578125zm11.910156 6.21875l0 -17.1875l2.109375 0l0 17.1875l-2.109375 0zm5.2851562 4.796875l-0.234375 -1.984375q0.703125 0.1875 1.21875 0.1875q0.703125 0 1.125 -0.234375q0.421875 -0.234375 0.6875 -0.65625q0.203125 -0.3125 0.640625 -1.5625q0.0625 -0.1875 0.1875 -0.515625l-4.71875 -12.484375l2.265625 0l2.59375 7.21875q0.5 1.359375 0.90625 2.875q0.359375 -1.453125 0.859375 -2.828125l2.671875 -7.265625l2.109375 0l-4.734375 12.671875q-0.765625 2.046875 -1.1875 2.8125q-0.5625 1.046875 -1.296875 1.53125q-0.71875 0.484375 -1.734375 0.484375q-0.609375 0 -1.359375 -0.25zm11.71875 -3.765625l2.046875 0.3125q0.125 0.9375 0.71875 1.375q0.78125 0.59375 2.140625 0.59375q1.46875 0 2.265625 -0.59375q0.796875 -0.578125 1.078125 -1.640625q0.15625 -0.640625 0.140625 -2.703125q-1.375 1.625 -3.4375 1.625q-2.5625 0 -3.96875 -1.84375q-1.40625 -1.859375 -1.40625 -4.453125q0 -1.78125 0.640625 -3.28125q0.640625 -1.515625 1.859375 -2.328125q1.234375 -0.828125 2.890625 -0.828125q2.203125 0 3.625 1.78125l0 -1.5l1.953125 0l0 10.765625q0 2.90625 -0.59375 4.109375q-0.59375 1.21875 -1.875 1.921875q-1.28125 0.703125 -3.15625 0.703125q-2.234375 0 -3.609375 -1.0q-1.359375 -1.0 -1.3125 -3.015625zm1.734375 -7.484375q0 2.453125 0.96875 3.578125q0.984375 1.125 2.453125 1.125q1.453125 0 2.4375 -1.109375q0.984375 -1.125 0.984375 -3.515625q0 -2.28125 -1.015625 -3.4375q-1.015625 -1.171875 -2.453125 -1.171875q-1.40625 0 -2.390625 1.140625q-0.984375 1.140625 -0.984375 3.390625zm11.207031 0.234375q0 -3.46875 1.921875 -5.125q1.609375 -1.390625 3.921875 -1.390625q2.5625 0 4.1875 1.6875q1.625 1.6875 1.625 4.640625q0 2.40625 -0.71875 3.78125q-0.71875 1.375 -2.09375 2.140625q-1.375 0.765625 -3.0 0.765625q-2.625 0 -4.234375 -1.671875q-1.609375 -1.6875 -1.609375 -4.828125zm2.171875 0q0 2.390625 1.03125 3.578125q1.046875 1.1875 2.640625 1.1875q1.5625 0 2.609375 -1.1875q1.046875 -1.203125 1.046875 -3.65625q0 -2.3125 -1.0625 -3.5q-1.046875 -1.1875 -2.59375 -1.1875q-1.59375 0 -2.640625 1.1875q-1.03125 1.1875 -1.03125 3.578125zm11.957031 6.21875l0 -12.453125l1.90625 0l0 1.78125q1.375 -2.0625 3.953125 -2.0625q1.125 0 2.0625 0.40625q0.953125 0.40625 1.421875 1.0625q0.46875 0.65625 0.65625 1.5625q0.125 0.578125 0.125 2.046875l0 7.65625l-2.109375 0l0 -7.578125q0 -1.28125 -0.25 -1.921875q-0.25 -0.640625 -0.875 -1.015625q-0.625 -0.390625 -1.46875 -0.390625q-1.34375 0 -2.328125 0.859375q-0.984375 0.859375 -0.984375 3.25l0 6.796875l-2.109375 0zm12.503906 -3.71875l2.09375 -0.328125q0.171875 1.25 0.96875 1.921875q0.8125 0.671875 2.25 0.671875q1.453125 0 2.15625 -0.59375q0.703125 -0.59375 0.703125 -1.390625q0 -0.71875 -0.625 -1.125q-0.421875 -0.28125 -2.15625 -0.71875q-2.3125 -0.578125 -3.21875 -1.0q-0.890625 -0.4375 -1.359375 -1.1875q-0.453125 -0.765625 -0.453125 -1.671875q0 -0.828125 0.375 -1.53125q0.390625 -0.71875 1.046875 -1.1875q0.484375 -0.359375 1.328125 -0.609375q0.859375 -0.265625 1.828125 -0.265625q1.46875 0 2.578125 0.421875q1.109375 0.421875 1.625 1.15625q0.53125 0.71875 0.734375 1.921875l-2.0625 0.28125q-0.140625 -0.96875 -0.8125 -1.5q-0.671875 -0.546875 -1.90625 -0.546875q-1.453125 0 -2.078125 0.484375q-0.625 0.484375 -0.625 1.125q0 0.40625 0.265625 0.734375q0.25 0.34375 0.8125 0.5625q0.3125 0.125 1.859375 0.546875q2.234375 0.59375 3.109375 0.984375q0.890625 0.375 1.390625 1.109375q0.515625 0.71875 0.515625 1.796875q0 1.046875 -0.625 1.984375q-0.609375 0.9375 -1.765625 1.453125q-1.15625 0.5 -2.625 0.5q-2.421875 0 -3.703125 -1.0q-1.265625 -1.015625 -1.625 -3.0z" fill-rule="nonzero"/><path fill="#4a86e8" d="m19.417322 170.79002l0 0c0 -3.974701 3.2221413 -7.1968536 7.1968517 -7.1968536l0 0c1.9087219 0 3.7392693 0.75823975 5.0889416 2.1079102c1.3496723 1.3496704 2.1079082 3.1802216 2.1079082 5.0889435l0 0c0 3.9747162 -3.2221394 7.1968536 -7.19685 7.1968536l0 0c-3.9747105 0 -7.1968517 -3.2221375 -7.1968517 -7.1968536z" fill-rule="evenodd"/><path fill="#4a86e8" d="m105.53018 111.28346l0 0c0 -3.9747086 3.222145 -7.196846 7.1968536 -7.196846l0 0c1.9087219 0 3.7392654 0.7582321 5.0889435 2.1079025c1.3496704 1.349678 2.1079025 3.1802216 2.1079025 5.0889435l0 0c0 3.9747162 -3.2221375 7.1968536 -7.196846 7.1968536l0 0c-3.9747086 0 -7.1968536 -3.2221375 -7.1968536 -7.1968536z" fill-rule="evenodd"/><path fill="#4a86e8" d="m116.314964 240.72179l0 0c0 -3.9747162 3.2221375 -7.1968536 7.196846 -7.1968536l0 0c1.9087219 0 3.739273 0.75823975 5.0889435 2.1079102c1.3496704 1.3496704 2.1079102 3.1802216 2.1079102 5.0889435l0 0c0 3.9747162 -3.222145 7.1968536 -7.1968536 7.1968536l0 0c-3.9747086 0 -7.196846 -3.2221375 -7.196846 -7.1968536z" fill-rule="evenodd"/><path fill="#4a86e8" d="m55.013123 327.7349l0 0c0 -3.974701 3.2221413 -7.1968384 7.19685 -7.1968384l0 0c1.9087257 0 3.7392693 0.75823975 5.0889397 2.1079102c1.349678 1.3496704 2.1079102 3.1802063 2.1079102 5.088928l0 0c0 3.9747314 -3.2221375 7.196869 -7.19685 7.196869l0 0c-3.9747086 0 -7.19685 -3.2221375 -7.19685 -7.196869z" fill-rule="evenodd"/><path fill="#4a86e8" d="m299.41763 154.87401l0 0c0 -3.974701 3.2221375 -7.1968384 7.1968384 -7.1968384l0 0c1.9087219 0 3.7392578 0.75823975 5.088928 2.1079102c1.3496704 1.3496704 2.1079102 3.1802063 2.1079102 5.088928l0 0c0 3.9747162 -3.2221375 7.1968536 -7.1968384 7.1968536l0 0c-3.974701 0 -7.1968384 -3.2221375 -7.1968384 -7.1968536z" fill-rule="evenodd"/><path fill="#4a86e8" d="m336.99243 111.28346l0 0c0 -3.9747086 3.2221375 -7.196846 7.1968384 -7.196846l0 0c1.9087219 0 3.7392578 0.7582321 5.088928 2.1079025c1.3497009 1.349678 2.1079102 3.1802216 2.1079102 5.0889435l0 0c0 3.9747162 -3.2221375 7.1968536 -7.1968384 7.1968536l0 0c-3.974701 0 -7.1968384 -3.2221375 -7.1968384 -7.1968536z" fill-rule="evenodd"/><path fill="#4a86e8" d="m378.4255 206.55905l0 0c0 -3.974701 3.2221375 -7.1968536 7.1968384 -7.1968536l0 0c1.9087219 0 3.7392578 0.75823975 5.088928 2.1079102c1.3496704 1.3496704 2.1079102 3.1802216 2.1079102 5.0889435l0 0c0 3.9747162 -3.2221375 7.1968536 -7.1968384 7.1968536l0 0c-3.974701 0 -7.1968384 -3.2221375 -7.1968384 -7.1968536z" fill-rule="evenodd"/><path fill="#4a86e8" d="m411.7142 142.58792l0 0c0 -3.974701 3.2221375 -7.1968384 7.1968384 -7.1968384l0 0c1.9087524 0 3.7392883 0.7582245 5.0889587 2.107895c1.3496704 1.3496857 2.1079102 3.1802216 2.1079102 5.0889435l0 0c0 3.9747162 -3.2221375 7.1968536 -7.196869 7.1968536l0 0c-3.974701 0 -7.1968384 -3.2221375 -7.1968384 -7.1968536z" fill-rule="evenodd"/><path fill="#000000" fill-opacity="0.0" d="m311.7034 149.78508l32.472443 -31.30709" fill-rule="evenodd"/><path stroke="#4a86e8" stroke-width="3.0" stroke-linejoin="round" stroke-linecap="butt" d="m311.7034 149.78508l32.472443 -31.30709" fill-rule="evenodd"/><path fill="#000000" fill-opacity="0.0" d="m344.18927 118.480316l41.448822 80.88188" fill-rule="evenodd"/><path stroke="#4a86e8" stroke-width="3.0" stroke-linejoin="round" stroke-linecap="butt" d="m344.18927 118.480316l41.448822 80.88188" fill-rule="evenodd"/><path fill="#000000" fill-opacity="0.0" d="m413.8221 147.67686l-28.188965 51.685043" fill-rule="evenodd"/><path stroke="#4a86e8" stroke-width="3.0" stroke-linejoin="round" stroke-linecap="butt" d="m413.8221 147.67686l-28.188965 51.685043" fill-rule="evenodd"/><path fill="#4a86e8" d="m304.08954 386.694l0 0c0 -3.974701 3.2221375 -7.1968384 7.1968384 -7.1968384l0 0c1.9087219 0 3.7392883 0.75823975 5.0889587 2.1079102c1.3496704 1.3496704 2.1079102 3.1802063 2.1079102 5.088928l0 0c0 3.974701 -3.2221375 7.196869 -7.196869 7.196869l0 0c-3.974701 0 -7.1968384 -3.222168 -7.1968384 -7.196869z" fill-rule="evenodd"/><path fill="#4a86e8" d="m411.7142 266.69662l0 0c0 -3.974701 3.2221375 -7.1968384 7.1968384 -7.1968384l0 0c1.9087524 0 3.7392883 0.75823975 5.0889587 2.1079102c1.3496704 1.3496704 2.1079102 3.1802063 2.1079102 5.088928l0 0c0 3.974701 -3.2221375 7.196869 -7.196869 7.196869l0 0c-3.974701 0 -7.1968384 -3.222168 -7.1968384 -7.196869z" fill-rule="evenodd"/><path fill="#000000" fill-opacity="0.0" d="m413.8221 271.78558l-97.44882 109.82675" fill-rule="evenodd"/><path stroke="#4a86e8" stroke-width="3.0" stroke-linejoin="round" stroke-linecap="butt" d="m413.8221 271.78558l-97.44882 109.82675" fill-rule="evenodd"/><path fill="#4a86e8" d="m618.33887 150.92126l0 0c0 -3.9747162 3.222168 -7.1968536 7.1968384 -7.1968536l0 0c1.9087524 0 3.7393188 0.75823975 5.0889893 2.1079102c1.3496704 1.3496704 2.1079102 3.1802216 2.1079102 5.0889435l0 0c0 3.974701 -3.222168 7.1968384 -7.1968994 7.1968384l0 0c-3.9746704 0 -7.1968384 -3.2221375 -7.1968384 -7.1968384z" fill-rule="evenodd"/><path fill="#4a86e8" d="m685.5856 96.902885l0 0c0 -3.9747086 3.222168 -7.196846 7.1968994 -7.196846l0 0c1.9086914 0 3.7392578 0.7582321 5.088928 2.1079025c1.3496704 1.349678 2.1079102 3.1802216 2.1079102 5.0889435l0 0c0 3.9747162 -3.222168 7.1968536 -7.1968384 7.1968536l0 0c-3.9747314 0 -7.1968994 -3.2221375 -7.1968994 -7.1968536z" fill-rule="evenodd"/><path fill="#4a86e8" d="m723.4306 212.95276l0 0c0 -3.9747162 3.222107 -7.1968536 7.1968384 -7.1968536l0 0c1.9087524 0 3.7392578 0.75823975 5.088928 2.1079102c1.3496704 1.3496704 2.1079102 3.1802216 2.1079102 5.0889435l0 0c0 3.974701 -3.222107 7.1968536 -7.1968384 7.1968536l0 0c-3.9747314 0 -7.1968384 -3.2221527 -7.1968384 -7.1968536z" fill-rule="evenodd"/><path fill="#4a86e8" d="m749.772 150.92126l0 0c0 -3.9747162 3.222107 -7.1968536 7.1968384 -7.1968536l0 0c1.9086914 0 3.7392578 0.75823975 5.088928 2.1079102c1.3496704 1.3496704 2.1079102 3.1802216 2.1079102 5.0889435l0 0c0 3.974701 -3.222168 7.1968384 -7.1968384 7.1968384l0 0c-3.9747314 0 -7.1968384 -3.2221375 -7.1968384 -7.1968384z" fill-rule="evenodd"/><path fill="#000000" fill-opacity="0.0" d="m630.6247 145.83232l57.07086 -43.84252" fill-rule="evenodd"/><path stroke="#4a86e8" stroke-width="3.0" stroke-linejoin="round" stroke-linecap="butt" d="m630.6247 145.83232l57.07086 -43.84252" fill-rule="evenodd"/><path fill="#000000" fill-opacity="0.0" d="m669.33905 212.95276l54.078735 0" fill-rule="evenodd"/><path stroke="#4a86e8" stroke-width="3.0" stroke-linejoin="round" stroke-linecap="butt" d="m669.33905 212.95276l54.078735 0" fill-rule="evenodd"/><path fill="#000000" fill-opacity="0.0" d="m756.9688 158.1181l-26.33075 47.65355" fill-rule="evenodd"/><path stroke="#4a86e8" stroke-width="3.0" stroke-linejoin="round" stroke-linecap="butt" d="m756.9688 158.1181l-26.33075 47.65355" fill-rule="evenodd"/><path fill="#4a86e8" d="m654.9453 212.95276l0 0c0 -3.9747162 3.222168 -7.1968536 7.1968384 -7.1968536l0 0c1.9087524 0 3.7393188 0.75823975 5.0889893 2.1079102c1.3496704 1.3496704 2.1079102 3.1802216 2.1079102 5.0889435l0 0c0 3.974701 -3.222168 7.1968536 -7.1968994 7.1968536l0 0c-3.9746704 0 -7.1968384 -3.2221527 -7.1968384 -7.1968536z" fill-rule="evenodd"/><path fill="#000000" fill-opacity="0.0" d="m625.5357 158.1181l31.527588 49.732285" fill-rule="evenodd"/><path stroke="#4a86e8" stroke-width="3.0" stroke-linejoin="round" stroke-linecap="butt" d="m625.5357 158.1181l31.527588 49.732285" fill-rule="evenodd"/><path fill="#000000" fill-opacity="0.0" d="m751.8799 145.83232l-54.015747 -43.84252" fill-rule="evenodd"/><path stroke="#4a86e8" stroke-width="3.0" stroke-linejoin="round" stroke-linecap="butt" d="m751.8799 145.83232l-54.015747 -43.84252" fill-rule="evenodd"/><path fill="#4a86e8" d="m605.5856 280.9029l0 0c0 -3.9747314 3.222168 -7.196869 7.1968994 -7.196869l0 0c1.9086914 0 3.7392578 0.75823975 5.088928 2.1079102c1.3496704 1.3496704 2.1079102 3.1802368 2.1079102 5.0889587l0 0c0 3.974701 -3.222168 7.1968384 -7.1968384 7.1968384l0 0c-3.9747314 0 -7.1968994 -3.2221375 -7.1968994 -7.1968384z" fill-rule="evenodd"/><path fill="#4a86e8" d="m641.6328 396.95276l0 0c0 -3.974701 3.222168 -7.1968384 7.1968994 -7.1968384l0 0c1.9086914 0 3.7392578 0.7582092 5.088928 2.1078796c1.3496704 1.3496704 2.1079102 3.1802368 2.1079102 5.0889587l0 0c0 3.974701 -3.222168 7.1968384 -7.1968384 7.1968384l0 0c-3.9747314 0 -7.1968994 -3.2221375 -7.1968994 -7.1968384z" fill-rule="evenodd"/><path fill="#000000" fill-opacity="0.0" d="m581.2433 389.75592l31.527588 -101.66931" fill-rule="evenodd"/><path stroke="#4a86e8" stroke-width="3.0" stroke-linejoin="round" stroke-linecap="butt" d="m581.2433 389.75592l31.527588 -101.66931" fill-rule="evenodd"/><path fill="#000000" fill-opacity="0.0" d="m588.4401 396.95276l53.1969 0" fill-rule="evenodd"/><path stroke="#4a86e8" stroke-width="3.0" stroke-linejoin="round" stroke-linecap="butt" d="m588.4401 396.95276l53.1969 0" fill-rule="evenodd"/><path fill="#4a86e8" d="m574.04645 396.95276l0 0c0 -3.974701 3.222168 -7.1968384 7.1968384 -7.1968384l0 0c1.9087524 0 3.7392578 0.7582092 5.088928 2.1078796c1.3496704 1.3496704 2.1079102 3.1802368 2.1079102 5.0889587l0 0c0 3.974701 -3.222107 7.1968384 -7.1968384 7.1968384l0 0c-3.9746704 0 -7.1968384 -3.2221375 -7.1968384 -7.1968384z" fill-rule="evenodd"/><path fill="#000000" fill-opacity="0.0" d="m648.8297 389.75592l-36.031494 -101.66931" fill-rule="evenodd"/><path stroke="#4a86e8" stroke-width="3.0" stroke-linejoin="round" stroke-linecap="butt" d="m648.8297 389.75592l-36.031494 -101.66931" fill-rule="evenodd"/><path fill="#4a86e8" d="m720.9006 315.2362l0 0c0 -3.974701 3.222107 -7.1968384 7.1968384 -7.1968384l0 0c1.9086914 0 3.7392578 0.75823975 5.088928 2.1079102c1.3496704 1.3496704 2.1079102 3.1802063 2.1079102 5.088928l0 0c0 3.9747314 -3.222107 7.196869 -7.1968384 7.196869l0 0c-3.9747314 0 -7.1968384 -3.2221375 -7.1968384 -7.196869z" fill-rule="evenodd"/><path fill="#4a86e8" d="m771.2484 261.21783l0 0c0 -3.974701 3.222107 -7.1968384 7.1968384 -7.1968384l0 0c1.9087524 0 3.7392578 0.75823975 5.088928 2.1079102c1.3496704 1.3496704 2.1079102 3.1802063 2.1079102 5.088928l0 0c0 3.9747314 -3.222107 7.196869 -7.1968384 7.196869l0 0c-3.9747314 0 -7.1968384 -3.2221375 -7.1968384 -7.196869z" fill-rule="evenodd"/><path fill="#4a86e8" d="m794.53033 384.46982l0 0c0 -3.974701 3.222107 -7.1968384 7.1968384 -7.1968384l0 0c1.9087524 0 3.7392578 0.7582092 5.088928 2.1078796c1.3496704 1.3497009 2.1079102 3.1802368 2.1079102 5.0889587l0 0c0 3.974701 -3.222107 7.1968384 -7.1968384 7.1968384l0 0c-3.9747314 0 -7.1968384 -3.2221375 -7.1968384 -7.1968384z" fill-rule="evenodd"/><path fill="#4a86e8" d="m862.331 317.34384l0 0c0 -3.9747314 3.222168 -7.196869 7.1968384 -7.196869l0 0c1.9087524 0 3.7393188 0.75823975 5.0889893 2.1079102c1.3496704 1.3496704 2.1079102 3.1802368 2.1079102 5.0889587l0 0c0 3.974701 -3.222168 7.1968384 -7.1968994 7.1968384l0 0c-3.9746704 0 -7.1968384 -3.2221375 -7.1968384 -7.1968384z" fill-rule="evenodd"/><path fill="#000000" fill-opacity="0.0" d="m733.18634 310.14728l40.15747 -43.84253" fill-rule="evenodd"/><path stroke="#4a86e8" stroke-width="3.0" stroke-linejoin="round" stroke-linecap="butt" d="m733.18634 310.14728l40.15747 -43.84253" fill-rule="evenodd"/><path fill="#000000" fill-opacity="0.0" d="m788.1498 339.2123l13.574768 38.04724" fill-rule="evenodd"/><path stroke="#4a86e8" stroke-width="3.0" stroke-linejoin="round" stroke-linecap="butt" d="m788.1498 339.2123l13.574768 38.04724" fill-rule="evenodd"/><path fill="#000000" fill-opacity="0.0" d="m840.04736 377.28873l-31.118103 7.1810913" fill-rule="evenodd"/><path stroke="#4a86e8" stroke-width="3.0" stroke-linejoin="round" stroke-linecap="butt" d="m840.04736 377.28873l-31.118103 7.1810913" fill-rule="evenodd"/><path fill="#4a86e8" d="m775.86395 334.12335l0 0c0 -3.974701 3.222168 -7.1968384 7.1968384 -7.1968384l0 0c1.9087524 0 3.7393188 0.75823975 5.0889893 2.1079102c1.3496704 1.3496704 2.1079102 3.1802063 2.1079102 5.088928l0 0c0 3.9747314 -3.222168 7.196869 -7.1968994 7.196869l0 0c-3.9746704 0 -7.1968384 -3.2221375 -7.1968384 -7.196869z" fill-rule="evenodd"/><path fill="#000000" fill-opacity="0.0" d="m733.18634 320.32516l44.787415 8.724396" fill-rule="evenodd"/><path stroke="#4a86e8" stroke-width="3.0" stroke-linejoin="round" stroke-linecap="butt" d="m733.18634 320.32516l44.787415 8.724396" fill-rule="evenodd"/><path fill="#000000" fill-opacity="0.0" d="m864.4389 312.25488l-24.37793 -37.35431" fill-rule="evenodd"/><path stroke="#4a86e8" stroke-width="3.0" stroke-linejoin="round" stroke-linecap="butt" d="m864.4389 312.25488l-24.37793 -37.35431" fill-rule="evenodd"/><path fill="#4a86e8" d="m840.04736 377.28873l0 0c0 -3.9747314 3.222168 -7.196869 7.1968994 -7.196869l0 0c1.9086914 0 3.7392578 0.75823975 5.088928 2.1079102c1.3496704 1.3496704 2.1079102 3.1802368 2.1079102 5.0889587l0 0c0 3.974701 -3.222168 7.1968384 -7.1968384 7.1968384l0 0c-3.9747314 0 -7.1968994 -3.2221375 -7.1968994 -7.1968384z" fill-rule="evenodd"/><path fill="#000000" fill-opacity="0.0" d="m869.52783 324.54068l-22.299194 45.543304" fill-rule="evenodd"/><path stroke="#4a86e8" stroke-width="3.0" stroke-linejoin="round" stroke-linecap="butt" d="m869.52783 324.54068l-22.299194 45.543304" fill-rule="evenodd"/><path fill="#4a86e8" d="m837.93994 280.0l0 0c0 -3.974701 3.222107 -7.1968384 7.1968384 -7.1968384l0 0c1.9086914 0 3.7392578 0.75823975 5.088928 2.1079102c1.3496704 1.3496704 2.1079102 3.1802063 2.1079102 5.088928l0 0c0 3.974701 -3.222107 7.1968384 -7.1968384 7.1968384l0 0c-3.9747314 0 -7.1968384 -3.2221375 -7.1968384 -7.1968384z" fill-rule="evenodd"/><path fill="#000000" fill-opacity="0.0" d="m785.6421 261.21783l54.393738 13.700806" fill-rule="evenodd"/><path stroke="#4a86e8" stroke-width="3.0" stroke-linejoin="round" stroke-linecap="butt" d="m785.6421 261.21783l54.393738 13.700806" fill-rule="evenodd"/></g></svg>